PathFileType	4	(X/Y/Z)	C:/Users/opensim2020/Desktop/walking_exp_matlab/subject03_walking09_straight_03.trc	
DataRate	CameraRate	NumFrames	NumMarkers	Units	OrigDataRate	OrigDataStartFrame	OrigNumFrames	
100.00	100.00	6	47	mm	100.00	3083	383	
Frame#	Time	LFHD			RFHD			LBHD			RBHD			C7			T10			CLAV			STRN			RBAK			LSHO			LUPA			LELB			LFRM			LWRA			LWRB			LFIN			RSHO			RUPA			RELB			RFRM			RWRA			RWRB			RFIN			LASI			RASI			LPSI			RPSI			LTHI			LKNE			LTIB			LANK			LHEE			LTOE			RTHI			RKNE			RTIB			RANK			RHEE			RTOE			*39			*40			*41			*42			*43			*44			*45			*46			
		X1	Y1	Z1	X2	Y2	Z2	X3	Y3	Z3	X4	Y4	Z4	X5	Y5	Z5	X6	Y6	Z6	X7	Y7	Z7	X8	Y8	Z8	X9	Y9	Z9	X10	Y10	Z10	X11	Y11	Z11	X12	Y12	Z12	X13	Y13	Z13	X14	Y14	Z14	X15	Y15	Z15	X16	Y16	Z16	X17	Y17	Z17	X18	Y18	Z18	X19	Y19	Z19	X20	Y20	Z20	X21	Y21	Z21	X22	Y22	Z22	X23	Y23	Z23	X24	Y24	Z24	X25	Y25	Z25	X26	Y26	Z26	X27	Y27	Z27	X28	Y28	Z28	X29	Y29	Z29	X30	Y30	Z30	X31	Y31	Z31	X32	Y32	Z32	X33	Y33	Z33	X34	Y34	Z34	X35	Y35	Z35	X36	Y36	Z36	X37	Y37	Z37	X38	Y38	Z38	X39	Y39	Z39	X40	Y40	Z40	X41	Y41	Z41	X42	Y42	Z42	X43	Y43	Z43	X44	Y44	Z44	X45	Y45	Z45	X46	Y46	Z46	X47	Y47	Z47	

288	2.870	-1044.84460	1086.52441	1611.80908	-913.60571	1065.01294	1609.25708	-1062.60168	959.75128	1568.12744	-933.03290	944.01776	1565.52832	-1003.84210	917.67871	1406.65796	-1009.23584	885.69678	1092.62061	-1006.19989	1038.51746	1329.16821	-1011.51343	1082.20203	1164.71021	-906.56128	866.03546	1230.97205	-1161.44556	990.16132	1367.30054	-1231.72852	966.11163	1169.05908	-1243.95544	965.59888	1045.90405	-1243.91406	994.43689	919.05048	-1213.33374	1022.09576	804.10614	-1260.25415	991.83893	805.66205	-1250.84875	1013.31049	724.40552	-845.99603	999.43011	1350.28552	-772.83862	1040.11597	1133.71301	-761.75543	1083.18079	1029.60364	-767.94507	1140.07983	905.28699	-811.91376	1194.12354	825.84204	-765.33362	1171.41174	809.80060	-781.47375	1214.94775	751.31287	-1119.07727	1058.43384	928.11060	-881.22430	1045.87439	929.32312	-1081.42688	893.53870	949.11646	-931.49658	887.47009	962.87390	-1168.36487	1061.95679	627.39307	-1120.12012	1124.76672	463.66687	-1125.25452	1136.78137	275.02014	-1092.81616	1192.56152	70.49011	-1053.73743	1163.87903	26.85909	-1073.32471	1345.25305	69.38462	-852.24365	951.23779	639.98419	-888.94775	930.58417	461.52014	-891.79968	837.37579	290.94717	-945.70978	752.20978	92.58032	-996.84967	702.71497	71.85281	-959.37018	884.36450	31.30991	-1003.55322	996.47064	1669.11206																					 
289	2.880	-1045.25183	1093.82227	1611.46497	-914.03998	1071.96570	1608.88831	-1063.35620	967.14807	1567.63306	-933.79382	951.11218	1564.95105	-1004.93555	925.22729	1406.09045	-1010.47809	893.86328	1091.79211	-1006.72882	1046.18689	1328.72009	-1011.79767	1089.94836	1164.24597	-907.99744	873.20520	1230.37122	-1162.18774	998.50159	1366.70862	-1232.15955	974.25610	1168.41272	-1244.19800	973.15894	1045.28369	-1243.69434	1000.91498	918.02997	-1212.82300	1027.32458	802.85895	-1259.97754	997.21869	804.60693	-1250.07324	1017.81238	723.08142	-846.67700	1006.18317	1349.72217	-773.47980	1046.44604	1133.06274	-762.44287	1089.34180	1028.85266	-768.76257	1146.19873	904.58368	-812.75568	1200.28882	825.25018	-766.25366	1177.52954	809.03705	-782.54089	1221.10071	750.61499	-1119.25513	1066.83350	927.37781	-881.52686	1052.69629	928.79291	-1082.85706	901.73505	948.77966	-932.95764	894.67645	962.57172	-1167.78882	1069.27893	626.48059	-1119.33167	1131.03271	462.59406	-1125.16199	1142.83337	273.97974	-1092.40662	1198.39844	69.18327	-1053.76953	1169.40515	25.53950	-1070.98718	1351.05811	68.37763	-852.47021	956.63879	639.89911	-888.82928	935.27734	461.45114	-891.72400	840.24792	291.67398	-945.55426	753.06207	94.16850	-996.81458	703.45129	74.00739	-959.15802	884.59058	31.32810	-1004.22345	1003.63525	1668.68713																					 
290	2.890	-1045.68213	1101.14978	1611.17261	-914.52704	1078.91309	1608.50391	-1064.13037	974.56854	1567.15771	-934.67920	958.17590	1564.46460	-1006.11639	932.89844	1405.46997	-1011.84534	901.82886	1091.22546	-1007.31909	1053.95593	1328.26355	-1012.11664	1097.85828	1163.80969	-909.54059	880.45337	1229.78455	-1163.04382	1006.89777	1366.18921	-1232.88721	982.61096	1167.63599	-1244.24683	980.95880	1044.53271	-1243.54016	1007.59979	917.03473	-1212.42432	1032.80652	801.67609	-1259.85693	1003.03546	803.72522	-1249.39685	1022.49292	721.81348	-847.36304	1013.03986	1349.21228	-774.21722	1052.65674	1132.46570	-763.14880	1095.38708	1028.13354	-769.53900	1152.13049	903.83698	-813.56390	1206.25464	824.49866	-767.16791	1183.44409	808.26324	-783.50061	1226.95007	749.78693	-1119.48547	1075.40503	926.76398	-881.89240	1059.75244	928.29309	-1084.22949	910.05432	948.44708	-934.33856	902.09827	962.15710	-1167.27478	1077.23987	625.82990	-1118.72620	1137.48645	461.56174	-1124.86682	1148.37341	272.71249	-1091.95654	1202.65466	67.60210	-1054.19214	1172.68970	24.81013	-1067.86792	1355.07312	66.07165	-852.69867	962.27911	639.71222	-888.72968	940.27985	461.23651	-891.64478	843.38245	292.42715	-945.19714	753.91461	95.80769	-996.64819	704.31152	76.14065	-959.18494	884.25812	30.67978	-1005.29694	1010.96851	1668.33350																					 
291	2.900	-1046.14844	1108.48523	1610.88879	-915.05963	1085.92175	1608.16113	-1064.92041	982.01099	1566.62244	-935.58020	965.22791	1563.86414	-1007.36829	940.62366	1404.92407	-1013.22125	909.89240	1090.66187	-1007.97290	1061.81763	1327.83423	-1012.46747	1105.89648	1163.40479	-911.13477	887.84113	1229.09692	-1163.94836	1015.43732	1365.68176	-1233.13672	991.03217	1167.31628	-1244.47131	988.89661	1043.83582	-1243.46411	1014.45288	916.10181	-1211.91199	1038.40564	800.51501	-1259.48132	1008.94031	802.55823	-1248.86182	1027.34851	720.54004	-848.19635	1019.93146	1348.76233	-774.95331	1058.86011	1131.84326	-763.88531	1101.28186	1027.41809	-770.20172	1157.88977	903.03949	-814.25818	1212.09070	823.77173	-767.90015	1189.06238	807.42621	-784.30713	1232.58252	748.91754	-1119.78308	1084.11755	926.20465	-882.30658	1066.90942	927.74048	-1085.57251	918.39203	948.08386	-935.71924	909.69720	961.71094	-1166.94397	1085.60925	625.35315	-1118.27319	1144.05640	460.50876	-1124.76807	1153.23535	271.31854	-1091.37354	1205.43860	65.81921	-1054.50659	1173.85901	24.16907	-1064.35828	1357.42029	62.09893	-852.96033	968.14941	639.55194	-888.53735	945.60980	461.02182	-891.49060	846.75458	293.15714	-944.93457	754.98682	97.57464	-996.42078	705.22632	78.48892	-959.01666	884.45117	30.66303	-1005.49579	1017.93494	1667.75854																					 
292	2.910	-1046.55347	1115.74609	1610.58215	-915.56934	1092.87793	1607.79102	-1065.83801	989.53729	1566.15259	-936.48865	972.33533	1563.25818	-1008.72101	948.34778	1404.32666	-1014.53949	918.16400	1090.03064	-1008.62177	1069.76514	1327.42517	-1012.80902	1114.02417	1163.01868	-912.80505	895.29980	1228.44458	-1164.91260	1024.10938	1365.25293	-1233.77271	999.53864	1166.72729	-1244.83533	996.88989	1043.15015	-1243.50745	1021.51904	915.23657	-1211.65063	1044.26160	799.43567	-1259.60376	1015.11749	801.74371	-1248.42371	1032.53821	719.32593	-849.07397	1026.87646	1348.34216	-775.64752	1064.97375	1131.25342	-764.57507	1107.09167	1026.67004	-770.90253	1163.46826	902.22064	-814.84589	1217.72229	822.94202	-768.64978	1194.46912	806.55261	-784.97552	1237.92566	747.94568	-1120.16492	1092.91602	925.76373	-882.68646	1074.39478	927.17419	-1086.87866	926.97992	948.04651	-937.04840	917.42432	961.26752	-1166.57715	1094.40942	625.07745	-1117.95422	1150.52087	459.26624	-1124.21948	1157.63025	269.92972	-1090.41394	1207.29797	64.34340	-1053.92627	1174.03235	23.70898	-1060.86279	1358.79260	55.29164	-853.27844	974.33905	639.28430	-888.44525	951.28339	460.65125	-891.36035	850.31152	293.86331	-944.50165	756.25226	99.38799	-996.12744	706.17535	81.08377	-958.83844	884.69830	30.66843	-1006.69104	1025.20618	1667.41235																					 
293	2.920	-1047.11804	1123.21179	1610.61279	-916.09784	1099.90198	1607.65698	-1066.76135	997.09662	1565.74951	-937.47479	979.54785	1562.78381	-1010.07813	956.00476	1403.96423	-1015.94275	926.59772	1089.51111	-1009.33307	1077.74292	1327.14441	-1013.18085	1122.28247	1162.90125	-914.60529	902.74408	1228.00696	-1165.88513	1032.87756	1364.80774	-1234.66431	1008.28436	1166.08813	-1245.18164	1005.24036	1042.52527	-1243.61804	1028.76514	914.36383	-1211.51257	1050.32654	798.38904	-1259.67261	1021.57550	800.90796	-1248.14697	1037.92603	718.25360	-850.00085	1033.88013	1347.98413	-776.37372	1071.03430	1130.66589	-765.21143	1112.79724	1025.94189	-771.48517	1168.89001	901.36798	-815.24866	1223.14441	821.96417	-769.21063	1199.63867	805.57672	-785.45984	1243.04944	746.92474	-1120.53186	1101.67224	925.53088	-883.03705	1082.07361	926.55426	-1088.30029	935.46313	948.01038	-938.34796	925.21558	960.89429	-1166.11292	1103.36511	625.32751	-1117.35815	1156.65881	458.70810	-1122.96509	1161.98499	269.16400	-1089.85986	1209.99536	64.01235	-1053.77405	1174.72864	24.73210	-1057.65771	1360.67212	47.85049	-853.67487	980.79974	638.86877	-888.41760	957.40240	460.23648	-891.25513	854.23853	294.66522	-944.05847	757.52020	101.40575	-995.61169	707.33417	83.85765	-958.57867	884.71735	30.27214	-1007.07214	1032.13599	1667.02246																					 
